<svg width="512" height="512" viewBox="0 0 512 512" fill="none" xmlns="http://www.w3.org/2000/svg">
  <rect width="512" height="512" rx="116" fill="#0E1021"/>
  <rect x="74" y="74" width="364" height="364" rx="92" fill="url(#softGlow)" opacity="0.9"/>
  <path d="M141 171C141 145.595 161.595 125 187 125H336C361.405 125 382 145.595 382 171V196L141 221V171Z" fill="url(#lid)" />
  <path d="M147 210L389 184" stroke="#0E1021" stroke-width="22" stroke-linecap="round"/>
  <rect x="121" y="194" width="270" height="215" rx="49" fill="url(#frame)" />
  <rect x="151" y="224" width="210" height="155" rx="26" fill="#10122A" fill-opacity="0.92"/>
  <path d="M178 349L229 286L270 331L304 292L342 349H178Z" fill="url(#mountains)"/>
  <circle cx="313" cy="267" r="20" fill="#FFB648"/>
  <path d="M382 110L393 139L422 150L393 161L382 190L371 161L342 150L371 139L382 110Z" fill="#FFF7FB"/>
  <path d="M111 318L119 338L139 346L119 354L111 374L103 354L83 346L103 338L111 318Z" fill="#FF5EA8"/>
  <defs>
    <radialGradient id="softGlow" cx="0" cy="0" r="1" gradientUnits="userSpaceOnUse" gradientTransform="translate(139 111) rotate(49.0856) scale(421.804)">
      <stop stop-color="#6D5BFF"/>
      <stop offset="0.48" stop-color="#FF5EA8"/>
      <stop offset="1" stop-color="#FFB648"/>
    </radialGradient>
    <linearGradient id="lid" x1="141" y1="125" x2="382" y2="221" gradientUnits="userSpaceOnUse">
      <stop stop-color="#7D66FF"/>
      <stop offset="0.5" stop-color="#B94DFF"/>
      <stop offset="1" stop-color="#FF5EA8"/>
    </linearGradient>
    <linearGradient id="frame" x1="121" y1="194" x2="391" y2="409" gradientUnits="userSpaceOnUse">
      <stop stop-color="#7D66FF"/>
      <stop offset="0.52" stop-color="#FF5EA8"/>
      <stop offset="1" stop-color="#FFB648"/>
    </linearGradient>
    <linearGradient id="mountains" x1="178" y1="286" x2="342" y2="349" gradientUnits="userSpaceOnUse">
      <stop stop-color="#6D5BFF"/>
      <stop offset="0.5" stop-color="#FF5EA8"/>
      <stop offset="1" stop-color="#FFB648"/>
    </linearGradient>
  </defs>
</svg>
